<svg width="145" height="145" viewBox="0 0 145 145" fill="none" xmlns="http://www.w3.org/2000/svg">
<path d="M63.2463 76.2015C61.2021 74.1572 61.2021 70.8428 63.2463 68.7985L68.7985 63.2463C70.8428 61.2021 74.1572 61.2021 76.2014 63.2463L81.7536 68.7985C83.7979 70.8428 83.7979 74.1572 81.7536 76.2015L76.2014 81.7537C74.1572 83.7979 70.8428 83.7979 68.7985 81.7537L63.2463 76.2015Z" fill="#2B2B2B"/>
<path d="M132.699 111.76V94.2238H145V50.7762H132.699V33.2401H111.76V111.76H132.699Z" fill="#2B2B2B"/>
<path d="M94.2238 12.3014V0H50.7762V12.3014H33.2401V33.2401H111.76V12.3014H94.2238Z" fill="#2B2B2B"/>
<path d="M12.3014 94.2238V111.76H33.2401V33.2401H12.3014V50.7762H0V94.2238H12.3014Z" fill="#2B2B2B"/>
<path d="M33.2401 132.699H50.7762V145H94.2238V132.699H111.76V111.76H33.2401V132.699Z" fill="#2B2B2B"/>
</svg>
